<mxfile host="app.diagrams.net" modified="2024-07-09T18:30:25.482Z" agent="Mozilla/5.0 (Windows NT 10.0; Win64; x64) AppleWebKit/537.36 (KHTML, like Gecko) Chrome/124.0.0.0 Safari/537.36 Edg/124.0.0.0" etag="HNOATE9cFw7ScDPBeU4H" version="24.6.4" type="github">
  <diagram id="C5RBs43oDa-KdzZeNtuy" name="Page-1">
    <mxGraphModel dx="1822" dy="2494" grid="1" gridSize="10" guides="1" tooltips="1" connect="1" arrows="1" fold="1" page="1" pageScale="1" pageWidth="827" pageHeight="1169" math="0" shadow="0">
      <root>
        <mxCell id="WIyWlLk6GJQsqaUBKTNV-0" />
        <mxCell id="WIyWlLk6GJQsqaUBKTNV-1" parent="WIyWlLk6GJQsqaUBKTNV-0" />
        <mxCell id="zkfFHV4jXpPFQw0GAbJ--0" value="部品登録" style="swimlane;fontStyle=2;align=center;verticalAlign=top;childLayout=stackLayout;horizontal=1;startSize=26;horizontalStack=0;resizeParent=1;resizeLast=0;collapsible=1;marginBottom=0;rounded=0;shadow=0;strokeWidth=1;" parent="WIyWlLk6GJQsqaUBKTNV-1" vertex="1">
          <mxGeometry x="70" y="120" width="300" height="138" as="geometry">
            <mxRectangle x="230" y="140" width="160" height="26" as="alternateBounds" />
          </mxGeometry>
        </mxCell>
        <mxCell id="zkfFHV4jXpPFQw0GAbJ--1" value="名称、カテゴリ、仕様、価格など" style="text;align=left;verticalAlign=top;spacingLeft=4;spacingRight=4;overflow=hidden;rotatable=0;points=[[0,0.5],[1,0.5]];portConstraint=eastwest;" parent="zkfFHV4jXpPFQw0GAbJ--0" vertex="1">
          <mxGeometry y="26" width="300" height="26" as="geometry" />
        </mxCell>
        <mxCell id="zkfFHV4jXpPFQw0GAbJ--4" value="" style="line;html=1;strokeWidth=1;align=left;verticalAlign=middle;spacingTop=-1;spacingLeft=3;spacingRight=3;rotatable=0;labelPosition=right;points=[];portConstraint=eastwest;" parent="zkfFHV4jXpPFQw0GAbJ--0" vertex="1">
          <mxGeometry y="52" width="300" height="8" as="geometry" />
        </mxCell>
        <mxCell id="zkfFHV4jXpPFQw0GAbJ--5" value="識別子（バーコード、QRコードなど）" style="text;align=left;verticalAlign=top;spacingLeft=4;spacingRight=4;overflow=hidden;rotatable=0;points=[[0,0.5],[1,0.5]];portConstraint=eastwest;" parent="zkfFHV4jXpPFQw0GAbJ--0" vertex="1">
          <mxGeometry y="60" width="300" height="26" as="geometry" />
        </mxCell>
        <mxCell id="zkfFHV4jXpPFQw0GAbJ--6" value="在庫管理" style="swimlane;fontStyle=0;align=center;verticalAlign=top;childLayout=stackLayout;horizontal=1;startSize=26;horizontalStack=0;resizeParent=1;resizeLast=0;collapsible=1;marginBottom=0;rounded=0;shadow=0;strokeWidth=1;" parent="WIyWlLk6GJQsqaUBKTNV-1" vertex="1">
          <mxGeometry x="120" y="360" width="160" height="138" as="geometry">
            <mxRectangle x="130" y="380" width="160" height="26" as="alternateBounds" />
          </mxGeometry>
        </mxCell>
        <mxCell id="zkfFHV4jXpPFQw0GAbJ--7" value="ロット管理" style="text;align=left;verticalAlign=top;spacingLeft=4;spacingRight=4;overflow=hidden;rotatable=0;points=[[0,0.5],[1,0.5]];portConstraint=eastwest;" parent="zkfFHV4jXpPFQw0GAbJ--6" vertex="1">
          <mxGeometry y="26" width="160" height="26" as="geometry" />
        </mxCell>
        <mxCell id="zkfFHV4jXpPFQw0GAbJ--8" value="棚卸" style="text;align=left;verticalAlign=top;spacingLeft=4;spacingRight=4;overflow=hidden;rotatable=0;points=[[0,0.5],[1,0.5]];portConstraint=eastwest;rounded=0;shadow=0;html=0;" parent="zkfFHV4jXpPFQw0GAbJ--6" vertex="1">
          <mxGeometry y="52" width="160" height="26" as="geometry" />
        </mxCell>
        <mxCell id="zkfFHV4jXpPFQw0GAbJ--9" value="" style="line;html=1;strokeWidth=1;align=left;verticalAlign=middle;spacingTop=-1;spacingLeft=3;spacingRight=3;rotatable=0;labelPosition=right;points=[];portConstraint=eastwest;" parent="zkfFHV4jXpPFQw0GAbJ--6" vertex="1">
          <mxGeometry y="78" width="160" height="8" as="geometry" />
        </mxCell>
        <mxCell id="zkfFHV4jXpPFQw0GAbJ--10" value="リポート作成" style="text;align=left;verticalAlign=top;spacingLeft=4;spacingRight=4;overflow=hidden;rotatable=0;points=[[0,0.5],[1,0.5]];portConstraint=eastwest;fontStyle=4" parent="zkfFHV4jXpPFQw0GAbJ--6" vertex="1">
          <mxGeometry y="86" width="160" height="26" as="geometry" />
        </mxCell>
        <mxCell id="zkfFHV4jXpPFQw0GAbJ--11" value="Get Seminars Taken" style="text;align=left;verticalAlign=top;spacingLeft=4;spacingRight=4;overflow=hidden;rotatable=0;points=[[0,0.5],[1,0.5]];portConstraint=eastwest;" parent="zkfFHV4jXpPFQw0GAbJ--6" vertex="1">
          <mxGeometry y="112" width="160" height="26" as="geometry" />
        </mxCell>
        <mxCell id="zkfFHV4jXpPFQw0GAbJ--12" value="" style="endArrow=block;endSize=10;endFill=0;shadow=0;strokeWidth=1;rounded=0;curved=0;edgeStyle=elbowEdgeStyle;elbow=vertical;" parent="WIyWlLk6GJQsqaUBKTNV-1" source="zkfFHV4jXpPFQw0GAbJ--6" target="zkfFHV4jXpPFQw0GAbJ--0" edge="1">
          <mxGeometry width="160" relative="1" as="geometry">
            <mxPoint x="200" y="203" as="sourcePoint" />
            <mxPoint x="200" y="203" as="targetPoint" />
          </mxGeometry>
        </mxCell>
        <mxCell id="zkfFHV4jXpPFQw0GAbJ--13" value="出庫管理" style="swimlane;fontStyle=0;align=center;verticalAlign=top;childLayout=stackLayout;horizontal=1;startSize=26;horizontalStack=0;resizeParent=1;resizeLast=0;collapsible=1;marginBottom=0;rounded=0;shadow=0;strokeWidth=1;" parent="WIyWlLk6GJQsqaUBKTNV-1" vertex="1">
          <mxGeometry x="330" y="360" width="160" height="110" as="geometry">
            <mxRectangle x="340" y="380" width="170" height="26" as="alternateBounds" />
          </mxGeometry>
        </mxCell>
        <mxCell id="zkfFHV4jXpPFQw0GAbJ--14" value="ピッキング" style="text;align=left;verticalAlign=top;spacingLeft=4;spacingRight=4;overflow=hidden;rotatable=0;points=[[0,0.5],[1,0.5]];portConstraint=eastwest;" parent="zkfFHV4jXpPFQw0GAbJ--13" vertex="1">
          <mxGeometry y="26" width="160" height="26" as="geometry" />
        </mxCell>
        <mxCell id="zkfFHV4jXpPFQw0GAbJ--15" value="" style="line;html=1;strokeWidth=1;align=left;verticalAlign=middle;spacingTop=-1;spacingLeft=3;spacingRight=3;rotatable=0;labelPosition=right;points=[];portConstraint=eastwest;" parent="zkfFHV4jXpPFQw0GAbJ--13" vertex="1">
          <mxGeometry y="52" width="160" height="8" as="geometry" />
        </mxCell>
        <mxCell id="zkfFHV4jXpPFQw0GAbJ--16" value="" style="endArrow=block;endSize=10;endFill=0;shadow=0;strokeWidth=1;rounded=0;curved=0;edgeStyle=elbowEdgeStyle;elbow=vertical;" parent="WIyWlLk6GJQsqaUBKTNV-1" source="zkfFHV4jXpPFQw0GAbJ--13" target="zkfFHV4jXpPFQw0GAbJ--0" edge="1">
          <mxGeometry width="160" relative="1" as="geometry">
            <mxPoint x="210" y="373" as="sourcePoint" />
            <mxPoint x="310" y="271" as="targetPoint" />
          </mxGeometry>
        </mxCell>
        <mxCell id="zkfFHV4jXpPFQw0GAbJ--17" value="Address" style="swimlane;fontStyle=0;align=center;verticalAlign=top;childLayout=stackLayout;horizontal=1;startSize=26;horizontalStack=0;resizeParent=1;resizeLast=0;collapsible=1;marginBottom=0;rounded=0;shadow=0;strokeWidth=1;" parent="WIyWlLk6GJQsqaUBKTNV-1" vertex="1">
          <mxGeometry x="508" y="120" width="160" height="216" as="geometry">
            <mxRectangle x="550" y="140" width="160" height="26" as="alternateBounds" />
          </mxGeometry>
        </mxCell>
        <mxCell id="zkfFHV4jXpPFQw0GAbJ--18" value="Street" style="text;align=left;verticalAlign=top;spacingLeft=4;spacingRight=4;overflow=hidden;rotatable=0;points=[[0,0.5],[1,0.5]];portConstraint=eastwest;" parent="zkfFHV4jXpPFQw0GAbJ--17" vertex="1">
          <mxGeometry y="26" width="160" height="26" as="geometry" />
        </mxCell>
        <mxCell id="zkfFHV4jXpPFQw0GAbJ--19" value="City" style="text;align=left;verticalAlign=top;spacingLeft=4;spacingRight=4;overflow=hidden;rotatable=0;points=[[0,0.5],[1,0.5]];portConstraint=eastwest;rounded=0;shadow=0;html=0;" parent="zkfFHV4jXpPFQw0GAbJ--17" vertex="1">
          <mxGeometry y="52" width="160" height="26" as="geometry" />
        </mxCell>
        <mxCell id="zkfFHV4jXpPFQw0GAbJ--20" value="State" style="text;align=left;verticalAlign=top;spacingLeft=4;spacingRight=4;overflow=hidden;rotatable=0;points=[[0,0.5],[1,0.5]];portConstraint=eastwest;rounded=0;shadow=0;html=0;" parent="zkfFHV4jXpPFQw0GAbJ--17" vertex="1">
          <mxGeometry y="78" width="160" height="26" as="geometry" />
        </mxCell>
        <mxCell id="zkfFHV4jXpPFQw0GAbJ--21" value="Postal Code" style="text;align=left;verticalAlign=top;spacingLeft=4;spacingRight=4;overflow=hidden;rotatable=0;points=[[0,0.5],[1,0.5]];portConstraint=eastwest;rounded=0;shadow=0;html=0;" parent="zkfFHV4jXpPFQw0GAbJ--17" vertex="1">
          <mxGeometry y="104" width="160" height="26" as="geometry" />
        </mxCell>
        <mxCell id="zkfFHV4jXpPFQw0GAbJ--22" value="Country" style="text;align=left;verticalAlign=top;spacingLeft=4;spacingRight=4;overflow=hidden;rotatable=0;points=[[0,0.5],[1,0.5]];portConstraint=eastwest;rounded=0;shadow=0;html=0;" parent="zkfFHV4jXpPFQw0GAbJ--17" vertex="1">
          <mxGeometry y="130" width="160" height="26" as="geometry" />
        </mxCell>
        <mxCell id="zkfFHV4jXpPFQw0GAbJ--23" value="" style="line;html=1;strokeWidth=1;align=left;verticalAlign=middle;spacingTop=-1;spacingLeft=3;spacingRight=3;rotatable=0;labelPosition=right;points=[];portConstraint=eastwest;" parent="zkfFHV4jXpPFQw0GAbJ--17" vertex="1">
          <mxGeometry y="156" width="160" height="8" as="geometry" />
        </mxCell>
        <mxCell id="zkfFHV4jXpPFQw0GAbJ--24" value="Validate" style="text;align=left;verticalAlign=top;spacingLeft=4;spacingRight=4;overflow=hidden;rotatable=0;points=[[0,0.5],[1,0.5]];portConstraint=eastwest;" parent="zkfFHV4jXpPFQw0GAbJ--17" vertex="1">
          <mxGeometry y="164" width="160" height="26" as="geometry" />
        </mxCell>
        <mxCell id="zkfFHV4jXpPFQw0GAbJ--25" value="Output As Label" style="text;align=left;verticalAlign=top;spacingLeft=4;spacingRight=4;overflow=hidden;rotatable=0;points=[[0,0.5],[1,0.5]];portConstraint=eastwest;" parent="zkfFHV4jXpPFQw0GAbJ--17" vertex="1">
          <mxGeometry y="190" width="160" height="26" as="geometry" />
        </mxCell>
        <mxCell id="zkfFHV4jXpPFQw0GAbJ--26" value="" style="endArrow=open;shadow=0;strokeWidth=1;rounded=0;curved=0;endFill=1;edgeStyle=elbowEdgeStyle;elbow=vertical;" parent="WIyWlLk6GJQsqaUBKTNV-1" source="zkfFHV4jXpPFQw0GAbJ--0" target="zkfFHV4jXpPFQw0GAbJ--17" edge="1">
          <mxGeometry x="0.5" y="41" relative="1" as="geometry">
            <mxPoint x="380" y="192" as="sourcePoint" />
            <mxPoint x="540" y="192" as="targetPoint" />
            <mxPoint x="-40" y="32" as="offset" />
          </mxGeometry>
        </mxCell>
        <mxCell id="zkfFHV4jXpPFQw0GAbJ--27" value="0..1" style="resizable=0;align=left;verticalAlign=bottom;labelBackgroundColor=none;fontSize=12;" parent="zkfFHV4jXpPFQw0GAbJ--26" connectable="0" vertex="1">
          <mxGeometry x="-1" relative="1" as="geometry">
            <mxPoint y="4" as="offset" />
          </mxGeometry>
        </mxCell>
        <mxCell id="zkfFHV4jXpPFQw0GAbJ--28" value="1" style="resizable=0;align=right;verticalAlign=bottom;labelBackgroundColor=none;fontSize=12;" parent="zkfFHV4jXpPFQw0GAbJ--26" connectable="0" vertex="1">
          <mxGeometry x="1" relative="1" as="geometry">
            <mxPoint x="-7" y="4" as="offset" />
          </mxGeometry>
        </mxCell>
        <mxCell id="zkfFHV4jXpPFQw0GAbJ--29" value="lives at" style="text;html=1;resizable=0;points=[];;align=center;verticalAlign=middle;labelBackgroundColor=none;rounded=0;shadow=0;strokeWidth=1;fontSize=12;" parent="zkfFHV4jXpPFQw0GAbJ--26" vertex="1" connectable="0">
          <mxGeometry x="0.5" y="49" relative="1" as="geometry">
            <mxPoint x="-38" y="40" as="offset" />
          </mxGeometry>
        </mxCell>
        <mxCell id="WsgQUwjktYY94gRYczDW-0" value="&lt;h2 style=&quot;font-family: &amp;quot;Eb Garamond&amp;quot;; font-size: 30px; font-weight: 500; margin-top: 48px; margin-bottom: 24px; line-height: 38px; position: relative; color: rgb(43, 43, 43); text-align: start; background-color: rgb(255, 255, 255);&quot; class=&quot;article-sub-heading&quot;&gt;～流れ～&lt;/h2&gt;&lt;p style=&quot;margin: 0px 0px 16px; color: rgb(43, 43, 43); font-family: &amp;quot;Segoe UI&amp;quot;, &amp;quot;Segoe UI Midlevel&amp;quot;, sans-serif; font-size: 17px; text-align: start; background-color: rgb(255, 255, 255);&quot; data-t=&quot;{&amp;quot;n&amp;quot;:&amp;quot;blueLinks&amp;quot;}&quot;&gt;　今回は下のような流れでやっていきたいと思います。&lt;/p&gt;&lt;p style=&quot;margin: 0px 0px 16px; color: rgb(43, 43, 43); font-family: &amp;quot;Segoe UI&amp;quot;, &amp;quot;Segoe UI Midlevel&amp;quot;, sans-serif; font-size: 17px; text-align: start; background-color: rgb(255, 255, 255);&quot; data-t=&quot;{&amp;quot;n&amp;quot;:&amp;quot;blueLinks&amp;quot;}&quot;&gt;1．GaiXerと会話して何を作るか決める&lt;/p&gt;&lt;p style=&quot;margin: 0px 0px 16px; color: rgb(43, 43, 43); font-family: &amp;quot;Segoe UI&amp;quot;, &amp;quot;Segoe UI Midlevel&amp;quot;, sans-serif; font-size: 17px; text-align: start; background-color: rgb(255, 255, 255);&quot; data-t=&quot;{&amp;quot;n&amp;quot;:&amp;quot;blueLinks&amp;quot;}&quot;&gt;2．作るものを決めたら必要な機能を列挙してもらう&lt;/p&gt;&lt;p style=&quot;margin: 0px 0px 16px; color: rgb(43, 43, 43); font-family: &amp;quot;Segoe UI&amp;quot;, &amp;quot;Segoe UI Midlevel&amp;quot;, sans-serif; font-size: 17px; text-align: start; background-color: rgb(255, 255, 255);&quot; data-t=&quot;{&amp;quot;n&amp;quot;:&amp;quot;blueLinks&amp;quot;}&quot;&gt;3．機能ごとに細かい要件を決める&lt;/p&gt;&lt;p style=&quot;margin: 0px 0px 16px; color: rgb(43, 43, 43); font-family: &amp;quot;Segoe UI&amp;quot;, &amp;quot;Segoe UI Midlevel&amp;quot;, sans-serif; font-size: 17px; text-align: start; background-color: rgb(255, 255, 255);&quot; data-t=&quot;{&amp;quot;n&amp;quot;:&amp;quot;blueLinks&amp;quot;}&quot;&gt;4．実際にGaiXerに開発してもらう&lt;/p&gt;&lt;p style=&quot;margin: 0px 0px 16px; color: rgb(43, 43, 43); font-family: &amp;quot;Segoe UI&amp;quot;, &amp;quot;Segoe UI Midlevel&amp;quot;, sans-serif; font-size: 17px; text-align: start; background-color: rgb(255, 255, 255);&quot; data-t=&quot;{&amp;quot;n&amp;quot;:&amp;quot;blueLinks&amp;quot;}&quot;&gt;　1．プロジェクトに必要なパッケージを教えてもらう&lt;/p&gt;&lt;p style=&quot;margin: 0px 0px 16px; color: rgb(43, 43, 43); font-family: &amp;quot;Segoe UI&amp;quot;, &amp;quot;Segoe UI Midlevel&amp;quot;, sans-serif; font-size: 17px; text-align: start; background-color: rgb(255, 255, 255);&quot; data-t=&quot;{&amp;quot;n&amp;quot;:&amp;quot;blueLinks&amp;quot;}&quot;&gt;　2．プロジェクトのディレクトリ構成を教えてもらう&lt;/p&gt;&lt;p style=&quot;margin: 0px 0px 16px; color: rgb(43, 43, 43); font-family: &amp;quot;Segoe UI&amp;quot;, &amp;quot;Segoe UI Midlevel&amp;quot;, sans-serif; font-size: 17px; text-align: start; background-color: rgb(255, 255, 255);&quot; data-t=&quot;{&amp;quot;n&amp;quot;:&amp;quot;blueLinks&amp;quot;}&quot;&gt;　3．コードを生成してもらう&lt;/p&gt;&lt;p style=&quot;margin: 0px 0px 16px; color: rgb(43, 43, 43); font-family: &amp;quot;Segoe UI&amp;quot;, &amp;quot;Segoe UI Midlevel&amp;quot;, sans-serif; font-size: 17px; text-align: start; background-color: rgb(255, 255, 255);&quot; data-t=&quot;{&amp;quot;n&amp;quot;:&amp;quot;blueLinks&amp;quot;}&quot;&gt;　開発するものの形態（Webアプリかネイティブアプリか）などは結果をわかりやすくするためにある程度指定してやっていこうと思います。&lt;/p&gt;&lt;p style=&quot;margin: 0px 0px 16px; color: rgb(43, 43, 43); font-family: &amp;quot;Segoe UI&amp;quot;, &amp;quot;Segoe UI Midlevel&amp;quot;, sans-serif; font-size: 17px; text-align: start; background-color: rgb(255, 255, 255);&quot; data-t=&quot;{&amp;quot;n&amp;quot;:&amp;quot;blueLinks&amp;quot;}&quot;&gt;　また、今回のLLMはBedrock Claude 3 Opusを使います。&lt;/p&gt;&lt;h2 style=&quot;font-family: &amp;quot;Eb Garamond&amp;quot;; font-size: 30px; font-weight: 500; margin-top: 48px; margin-bottom: 24px; line-height: 38px; position: relative; color: rgb(43, 43, 43); text-align: start; background-color: rgb(255, 255, 255);&quot; class=&quot;article-sub-heading&quot;&gt;～ 要件定義編 ～&lt;/h2&gt;&lt;p style=&quot;margin: 0px 0px 16px; color: rgb(43, 43, 43); font-family: &amp;quot;Segoe UI&amp;quot;, &amp;quot;Segoe UI Midlevel&amp;quot;, sans-serif; font-size: 17px; text-align: start; background-color: rgb(255, 255, 255);&quot; data-t=&quot;{&amp;quot;n&amp;quot;:&amp;quot;blueLinks&amp;quot;}&quot;&gt;　要件定義をする前に今回のプロジェクトで何を作るか決めていきます。&lt;/p&gt;&lt;p style=&quot;margin: 0px 0px 16px; color: rgb(43, 43, 43); font-family: &amp;quot;Segoe UI&amp;quot;, &amp;quot;Segoe UI Midlevel&amp;quot;, sans-serif; font-size: 17px; text-align: start; background-color: rgb(255, 255, 255);&quot; data-t=&quot;{&amp;quot;n&amp;quot;:&amp;quot;blueLinks&amp;quot;}&quot;&gt;　GaiXerと会話しながら作るものを決めていきます。&lt;/p&gt;&lt;p style=&quot;margin: 0px 0px 16px; color: rgb(43, 43, 43); font-family: &amp;quot;Segoe UI&amp;quot;, &amp;quot;Segoe UI Midlevel&amp;quot;, sans-serif; font-size: 17px; text-align: start; background-color: rgb(255, 255, 255);&quot; data-t=&quot;{&amp;quot;n&amp;quot;:&amp;quot;blueLinks&amp;quot;}&quot;&gt;　まずはイメージを伝えます。&lt;/p&gt;&lt;blockquote style=&quot;color: rgb(43, 43, 43); font-family: &amp;quot;Segoe UI&amp;quot;, &amp;quot;Segoe UI Midlevel&amp;quot;, sans-serif; font-size: 17px; text-align: start; background-color: rgb(255, 255, 255);&quot;&gt;&lt;p style=&quot;margin: 0px 0px 16px;&quot;&gt;私は個人でWebアプリを開発しようと考えています。&lt;/p&gt;&lt;p style=&quot;margin: 0px 0px 16px;&quot;&gt;フロントエンド＋データベースで実装できるアプリでなにかアイデアはありますか？&lt;/p&gt;&lt;/blockquote&gt;&lt;p style=&quot;margin: 0px 0px 16px; color: rgb(43, 43, 43); font-family: &amp;quot;Segoe UI&amp;quot;, &amp;quot;Segoe UI Midlevel&amp;quot;, sans-serif; font-size: 17px; text-align: start; background-color: rgb(255, 255, 255);&quot; data-t=&quot;{&amp;quot;n&amp;quot;:&amp;quot;blueLinks&amp;quot;}&quot;&gt;　GaiXerはこのように返してくれました。&lt;/p&gt;&lt;blockquote style=&quot;color: rgb(43, 43, 43); font-family: &amp;quot;Segoe UI&amp;quot;, &amp;quot;Segoe UI Midlevel&amp;quot;, sans-serif; font-size: 17px; text-align: start; background-color: rgb(255, 255, 255);&quot;&gt;&lt;p style=&quot;margin: 0px 0px 16px;&quot;&gt;個人でWebアプリを開発するのは良いアイデアですね。フロントエンドとデータベースを使ったアプリのアイデアをいくつか提案します。&lt;/p&gt;&lt;p style=&quot;margin: 0px 0px 16px;&quot;&gt;1．タスク管理アプリ ユーザーがタスクを追加、編集、削除できる機能を備えたシンプルなタスク管理アプリです。各タスクにはタイトル、説明、期限などの情報を保存します。&lt;/p&gt;&lt;p style=&quot;margin: 0px 0px 16px;&quot;&gt;2．レシピ共有アプリ ユーザーがお気に入りのレシピを投稿し、他のユーザーと共有できるアプリです。レシピのタイトル、材料、手順、画像などをデータベースに保存します。&lt;/p&gt;&lt;p style=&quot;margin: 0px 0px 16px;&quot;&gt;3．個人的な読書記録アプリ 読んだ本の情報（タイトル、著者、評価、感想など）を記録できるアプリです。読書履歴を管理し、お気に入りの本をマークできる機能も追加できます。&lt;/p&gt;&lt;p style=&quot;margin: 0px 0px 16px;&quot;&gt;4．学習記録アプリ 学習した内容やスキルを記録し、進捗を追跡できるアプリです。学習したトピック、学習時間、メモなどをデータベースに保存します。&lt;/p&gt;&lt;p style=&quot;margin: 0px 0px 16px;&quot;&gt;5．旅行計画アプリ 旅行の計画を立てるためのアプリです。行き先、日程、予算、アクティビティなどを記録し、旅行の詳細を管理できます。&lt;/p&gt;&lt;p style=&quot;margin: 0px 0px 16px;&quot;&gt;6．個人的な予算管理アプリ 収入と支出を記録し、予算を管理するためのアプリです。カテゴリ別の支出を追跡し、貯蓄目標を設定することもできます。&lt;/p&gt;&lt;p style=&quot;margin: 0px 0px 16px;&quot;&gt;7．日記アプリ 日々の出来事や思いを記録できる日記アプリです。エントリーにはタイトル、本文、日付などを保存します。プライバシー保護のため、ログイン機能を追加することもできます。&lt;/p&gt;&lt;p style=&quot;margin: 0px 0px 16px;&quot;&gt;これらは一例ですが、自分の興味や必要性に合ったアプリを選んで開発してみてください。シンプルなアプリから始めて、徐々に機能を追加していくのがおすすめです。アプリ開発を通して、フロントエンドとデータベースの連携についても学ぶことができるでしょう。がんばってください！&lt;/p&gt;&lt;/blockquote&gt;&lt;p style=&quot;margin: 0px 0px 16px; color: rgb(43, 43, 43); font-family: &amp;quot;Segoe UI&amp;quot;, &amp;quot;Segoe UI Midlevel&amp;quot;, sans-serif; font-size: 17px; text-align: start; background-color: rgb(255, 255, 255);&quot; data-t=&quot;{&amp;quot;n&amp;quot;:&amp;quot;blueLinks&amp;quot;}&quot;&gt;　最後に応援までしてくれて優しいですね。&lt;/p&gt;&lt;p style=&quot;margin: 0px 0px 16px; color: rgb(43, 43, 43); font-family: &amp;quot;Segoe UI&amp;quot;, &amp;quot;Segoe UI Midlevel&amp;quot;, sans-serif; font-size: 17px; text-align: start; background-color: rgb(255, 255, 255);&quot; data-t=&quot;{&amp;quot;n&amp;quot;:&amp;quot;blueLinks&amp;quot;}&quot;&gt;　この中から、読書が好きなので「読書記録アプリ」に決定しました。&lt;/p&gt;&lt;p style=&quot;margin: 0px 0px 16px; color: rgb(43, 43, 43); font-family: &amp;quot;Segoe UI&amp;quot;, &amp;quot;Segoe UI Midlevel&amp;quot;, sans-serif; font-size: 17px; text-align: start; background-color: rgb(255, 255, 255);&quot; data-t=&quot;{&amp;quot;n&amp;quot;:&amp;quot;blueLinks&amp;quot;}&quot;&gt;　より詳しい機能を提案してもらいます。&lt;/p&gt;&lt;blockquote style=&quot;color: rgb(43, 43, 43); font-family: &amp;quot;Segoe UI&amp;quot;, &amp;quot;Segoe UI Midlevel&amp;quot;, sans-serif; font-size: 17px; text-align: start; background-color: rgb(255, 255, 255);&quot;&gt;&lt;p style=&quot;margin: 0px 0px 16px;&quot;&gt;読書が好きなので読書記録アプリを開発しようと思います！&lt;/p&gt;&lt;p style=&quot;margin: 0px 0px 16px;&quot;&gt;このアプリに必要な機能をより詳しく提案してください。&lt;/p&gt;&lt;/blockquote&gt;&lt;blockquote style=&quot;color: rgb(43, 43, 43); font-family: &amp;quot;Segoe UI&amp;quot;, &amp;quot;Segoe UI Midlevel&amp;quot;, sans-serif; font-size: 17px; text-align: start; background-color: rgb(255, 255, 255);&quot;&gt;&lt;p style=&quot;margin: 0px 0px 16px;&quot;&gt;読書記録アプリを開発するのは素晴らしいアイデアですね！以下に、このアプリに必要な機能をより詳しく提案します。&lt;/p&gt;&lt;p style=&quot;margin: 0px 0px 16px;&quot;&gt;1．ユーザー認証&lt;/p&gt;&lt;p style=&quot;margin: 0px 0px 16px;&quot;&gt;　・ユーザー登録とログイン機能を実装して、個人の読書記録を保護します。&lt;/p&gt;&lt;p style=&quot;margin: 0px 0px 16px;&quot;&gt;　・パスワードリセット機能も追加するとよいでしょう。&lt;/p&gt;&lt;p style=&quot;margin: 0px 0px 16px;&quot;&gt;2．本の追加&lt;/p&gt;&lt;p style=&quot;margin: 0px 0px 16px;&quot;&gt;　・ユーザーが読んだ本の情報を追加できる機能が必要です。&lt;/p&gt;&lt;p style=&quot;margin: 0px 0px 16px;&quot;&gt;　・本のタイトル、著者、ISBN、出版社、出版日、ジャンル、評価、感想などの情報を入力できるようにします。&lt;/p&gt;&lt;p style=&quot;margin: 0px 0px 16px;&quot;&gt;　・ISBNを入力すると、書籍情報を自動的に取得する機能があるとより便利です。&lt;/p&gt;&lt;p style=&quot;margin: 0px 0px 16px;&quot;&gt;3．本の一覧表示&lt;/p&gt;&lt;p style=&quot;margin: 0px 0px 16px;&quot;&gt;　・追加された本の情報を一覧で表示する機能が必要です。&lt;/p&gt;&lt;p style=&quot;margin: 0px 0px 16px;&quot;&gt;　・各本の表紙画像、タイトル、著者、評価などの基本情報を表示します。&lt;/p&gt;&lt;p style=&quot;margin: 0px 0px 16px;&quot;&gt;　・一覧からの検索、ソート、フィルター機能があると便利です。&lt;/p&gt;&lt;p style=&quot;margin: 0px 0px 16px;&quot;&gt;5．本の詳細表示&lt;/p&gt;&lt;p style=&quot;margin: 0px 0px 16px;&quot;&gt;　・個々の本の詳細情報を表示するページが必要です。&lt;/p&gt;&lt;p style=&quot;margin: 0px 0px 16px;&quot;&gt;　・タイトル、著者、ISBN、出版社、出版日、ジャンル、評価、感想などの情報を表示します。&lt;/p&gt;&lt;p style=&quot;margin: 0px 0px 16px;&quot;&gt;　・本の表紙画像も大きく表示すると視覚的に訴求力があります。&lt;/p&gt;&lt;p style=&quot;margin: 0px 0px 16px;&quot;&gt;6．本の編集と削除&lt;/p&gt;&lt;p style=&quot;margin: 0px 0px 16px;&quot;&gt;　・追加した本の情報を編集したり、削除したりする機能が必要です。&lt;/p&gt;&lt;p style=&quot;margin: 0px 0px 16px;&quot;&gt;　・ユーザーが入力ミスに気づいたり、感想を更新したい場合に便利です。&lt;/p&gt;&lt;p style=&quot;margin: 0px 0px 16px;&quot;&gt;7．お気に入り機能&lt;/p&gt;&lt;p style=&quot;margin: 0px 0px 16px;&quot;&gt;　・ユーザーがお気に入りの本にマークを付けられる機能があると便利です。&lt;/p&gt;&lt;p style=&quot;margin: 0px 0px 16px;&quot;&gt;　・お気に入りの本だけを一覧で表示することができます。&lt;/p&gt;&lt;p style=&quot;margin: 0px 0px 16px;&quot;&gt;8．読書状況の管理&lt;/p&gt;&lt;p style=&quot;margin: 0px 0px 16px;&quot;&gt;　・本の読書状況（未読、読書中、読了）を管理する機能があるとよいでしょう。&lt;/p&gt;&lt;p style=&quot;margin: 0px 0px 16px;&quot;&gt;　・読書中の本や、読了した本の一覧を表示できます。&lt;/p&gt;&lt;p style=&quot;margin: 0px 0px 16px;&quot;&gt;9．統計情報の表示&lt;/p&gt;&lt;p style=&quot;margin: 0px 0px 16px;&quot;&gt;　・ユーザーの読書習慣に関する統計情報を表示する機能があると面白いです。&lt;/p&gt;&lt;p style=&quot;margin: 0px 0px 16px;&quot;&gt;　・月別の読書量、ジャンル別の読書傾向、年間の読書目標の達成状況などを可視化します。&lt;/p&gt;&lt;p style=&quot;margin: 0px 0px 16px;&quot;&gt;10．読書記録の共有&lt;/p&gt;&lt;p style=&quot;margin: 0px 0px 16px;&quot;&gt;　・読書記録を他のユーザーと共有する機能があると、読書コミュニティが形成されます。&lt;/p&gt;&lt;p style=&quot;margin: 0px 0px 16px;&quot;&gt;　・共有された読書記録にコメントやいいねを付けられる機能も検討してみてください。&lt;/p&gt;&lt;p style=&quot;margin: 0px 0px 16px;&quot;&gt;11．読みたい本のリスト&lt;/p&gt;&lt;p style=&quot;margin: 0px 0px 16px;&quot;&gt;　・ユーザーが読みたい本のリストを作成できる機能があると便利です。&lt;/p&gt;&lt;p style=&quot;margin: 0px 0px 16px;&quot;&gt;　・リストに追加した本を購入したり、図書館で借りたりするときに役立ちます。&lt;/p&gt;&lt;p style=&quot;margin: 0px 0px 16px;&quot;&gt;以上が、読書記録アプリに必要な機能の提案です。まずはコアとなる機能から開発を始め、徐々に機能を追加していくことをおすすめします。ユーザーの利便性を考えながら、楽しく開発を進めてください！&lt;/p&gt;&lt;/blockquote&gt;&lt;p style=&quot;margin: 0px 0px 16px; color: rgb(43, 43, 43); font-family: &amp;quot;Segoe UI&amp;quot;, &amp;quot;Segoe UI Midlevel&amp;quot;, sans-serif; font-size: 17px; text-align: start; background-color: rgb(255, 255, 255);&quot; data-t=&quot;{&amp;quot;n&amp;quot;:&amp;quot;blueLinks&amp;quot;}&quot;&gt;　今回は挙げられた機能の中から以下の機能を実装することにします。&lt;/p&gt;&lt;p style=&quot;margin: 0px 0px 16px; color: rgb(43, 43, 43); font-family: &amp;quot;Segoe UI&amp;quot;, &amp;quot;Segoe UI Midlevel&amp;quot;, sans-serif; font-size: 17px; text-align: start; background-color: rgb(255, 255, 255);&quot; data-t=&quot;{&amp;quot;n&amp;quot;:&amp;quot;blueLinks&amp;quot;}&quot;&gt;・ユーザー認証&lt;/p&gt;&lt;p style=&quot;margin: 0px 0px 16px; color: rgb(43, 43, 43); font-family: &amp;quot;Segoe UI&amp;quot;, &amp;quot;Segoe UI Midlevel&amp;quot;, sans-serif; font-size: 17px; text-align: start; background-color: rgb(255, 255, 255);&quot; data-t=&quot;{&amp;quot;n&amp;quot;:&amp;quot;blueLinks&amp;quot;}&quot;&gt;・本の追加&lt;/p&gt;&lt;p style=&quot;margin: 0px 0px 16px; color: rgb(43, 43, 43); font-family: &amp;quot;Segoe UI&amp;quot;, &amp;quot;Segoe UI Midlevel&amp;quot;, sans-serif; font-size: 17px; text-align: start; background-color: rgb(255, 255, 255);&quot; data-t=&quot;{&amp;quot;n&amp;quot;:&amp;quot;blueLinks&amp;quot;}&quot;&gt;・本の一覧表示&lt;/p&gt;&lt;p style=&quot;margin: 0px 0px 16px; color: rgb(43, 43, 43); font-family: &amp;quot;Segoe UI&amp;quot;, &amp;quot;Segoe UI Midlevel&amp;quot;, sans-serif; font-size: 17px; text-align: start; background-color: rgb(255, 255, 255);&quot; data-t=&quot;{&amp;quot;n&amp;quot;:&amp;quot;blueLinks&amp;quot;}&quot;&gt;・本の詳細表示&lt;/p&gt;&lt;p style=&quot;margin: 0px 0px 16px; color: rgb(43, 43, 43); font-family: &amp;quot;Segoe UI&amp;quot;, &amp;quot;Segoe UI Midlevel&amp;quot;, sans-serif; font-size: 17px; text-align: start; background-color: rgb(255, 255, 255);&quot; data-t=&quot;{&amp;quot;n&amp;quot;:&amp;quot;blueLinks&amp;quot;}&quot;&gt;・本の追加と削除&lt;/p&gt;&lt;p style=&quot;margin: 0px 0px 16px; color: rgb(43, 43, 43); font-family: &amp;quot;Segoe UI&amp;quot;, &amp;quot;Segoe UI Midlevel&amp;quot;, sans-serif; font-size: 17px; text-align: start; background-color: rgb(255, 255, 255);&quot; data-t=&quot;{&amp;quot;n&amp;quot;:&amp;quot;blueLinks&amp;quot;}&quot;&gt;・お気に入り機能&lt;/p&gt;&lt;p style=&quot;margin: 0px 0px 16px; color: rgb(43, 43, 43); font-family: &amp;quot;Segoe UI&amp;quot;, &amp;quot;Segoe UI Midlevel&amp;quot;, sans-serif; font-size: 17px; text-align: start; background-color: rgb(255, 255, 255);&quot; data-t=&quot;{&amp;quot;n&amp;quot;:&amp;quot;blueLinks&amp;quot;}&quot;&gt;・読書状況の管理&lt;/p&gt;&lt;p style=&quot;margin: 0px 0px 16px; color: rgb(43, 43, 43); font-family: &amp;quot;Segoe UI&amp;quot;, &amp;quot;Segoe UI Midlevel&amp;quot;, sans-serif; font-size: 17px; text-align: start; background-color: rgb(255, 255, 255);&quot; data-t=&quot;{&amp;quot;n&amp;quot;:&amp;quot;blueLinks&amp;quot;}&quot;&gt;　必要なデータを挙げてもらいました。&lt;/p&gt;&lt;blockquote style=&quot;color: rgb(43, 43, 43); font-family: &amp;quot;Segoe UI&amp;quot;, &amp;quot;Segoe UI Midlevel&amp;quot;, sans-serif; font-size: 17px; text-align: start; background-color: rgb(255, 255, 255);&quot;&gt;&lt;p style=&quot;margin: 0px 0px 16px;&quot;&gt;選択された機能を実装するために必要なデータを以下に挙げます。&lt;/p&gt;&lt;p style=&quot;margin: 0px 0px 16px;&quot;&gt;1. ユーザーテーブル&lt;/p&gt;&lt;p style=&quot;margin: 0px 0px 16px;&quot;&gt;- ユーザーID（主キー）&lt;/p&gt;&lt;p style=&quot;margin: 0px 0px 16px;&quot;&gt;- メールアドレス&lt;/p&gt;&lt;p style=&quot;margin: 0px 0px 16px;&quot;&gt;- パスワード（ハッシュ化して保存）&lt;/p&gt;&lt;p style=&quot;margin: 0px 0px 16px;&quot;&gt;- ユーザー名&lt;/p&gt;&lt;p style=&quot;margin: 0px 0px 16px;&quot;&gt;- 登録日時&lt;/p&gt;&lt;p style=&quot;margin: 0px 0px 16px;&quot;&gt;2. 本テーブル&lt;/p&gt;&lt;p style=&quot;margin: 0px 0px 16px;&quot;&gt;- 本ID（主キー）&lt;/p&gt;&lt;p style=&quot;margin: 0px 0px 16px;&quot;&gt;- タイトル&lt;/p&gt;&lt;p style=&quot;margin: 0px 0px 16px;&quot;&gt;- 著者&lt;/p&gt;&lt;p style=&quot;margin: 0px 0px 16px;&quot;&gt;- ISBN&lt;/p&gt;&lt;p style=&quot;margin: 0px 0px 16px;&quot;&gt;- 出版社&lt;/p&gt;&lt;p style=&quot;margin: 0px 0px 16px;&quot;&gt;- 出版日&lt;/p&gt;&lt;p style=&quot;margin: 0px 0px 16px;&quot;&gt;- ジャンル&lt;/p&gt;&lt;p style=&quot;margin: 0px 0px 16px;&quot;&gt;- 表紙画像のURL&lt;/p&gt;&lt;p style=&quot;margin: 0px 0px 16px;&quot;&gt;3. 読書記録テーブル&lt;/p&gt;&lt;p style=&quot;margin: 0px 0px 16px;&quot;&gt;- 読書記録ID（主キー）&lt;/p&gt;&lt;p style=&quot;margin: 0px 0px 16px;&quot;&gt;- ユーザーID（外部キー：ユーザーテーブルとの関連付け）&lt;/p&gt;&lt;p style=&quot;margin: 0px 0px 16px;&quot;&gt;- 本ID（外部キー：本テーブルとの関連付け）&lt;/p&gt;&lt;p style=&quot;margin: 0px 0px 16px;&quot;&gt;- 評価（5段階など）&lt;/p&gt;&lt;p style=&quot;margin: 0px 0px 16px;&quot;&gt;- 感想&lt;/p&gt;&lt;p style=&quot;margin: 0px 0px 16px;&quot;&gt;- 読書状況（未読、読書中、読了）&lt;/p&gt;&lt;p style=&quot;margin: 0px 0px 16px;&quot;&gt;- お気に入りフラグ&lt;/p&gt;&lt;p style=&quot;margin: 0px 0px 16px;&quot;&gt;- 登録日時&lt;/p&gt;&lt;p style=&quot;margin: 0px 0px 16px;&quot;&gt;- 更新日時&lt;/p&gt;&lt;p style=&quot;margin: 0px 0px 16px;&quot;&gt;4. ジャンルテーブル&lt;/p&gt;&lt;p style=&quot;margin: 0px 0px 16px;&quot;&gt;- ジャンルID（主キー）&lt;/p&gt;&lt;p style=&quot;margin: 0px 0px 16px;&quot;&gt;- ジャンル名&lt;/p&gt;&lt;p style=&quot;margin: 0px 0px 16px;&quot;&gt;これらのテーブルを関連付けることで、必要な機能を実装することができます。&lt;/p&gt;&lt;p style=&quot;margin: 0px 0px 16px;&quot;&gt;- ユーザーテーブルでユーザー認証に必要な情報を管理します。&lt;/p&gt;&lt;p style=&quot;margin: 0px 0px 16px;&quot;&gt;- 本テーブルで本の基本情報を管理します。&lt;/p&gt;&lt;p style=&quot;margin: 0px 0px 16px;&quot;&gt;- 読書記録テーブルでユーザーごとの読書記録を管理します。&lt;/p&gt;&lt;p style=&quot;margin: 0px 0px 16px;&quot;&gt;- ユーザーIDと本IDを外部キーとして設定し、ユーザーと本を関連付けます。&lt;/p&gt;&lt;p style=&quot;margin: 0px 0px 16px;&quot;&gt;- 評価、感想、読書状況、お気に入りフラグなどの情報を保存します。&lt;/p&gt;&lt;p style=&quot;margin: 0px 0px 16px;&quot;&gt;- ジャンルテーブルでジャンルの情報を管理します。&lt;/p&gt;&lt;p style=&quot;margin: 0px 0px 16px;&quot;&gt;- 本テーブルとジャンルテーブルを関連付けることで、本のジャンル分類を行うことができます。&lt;/p&gt;&lt;p style=&quot;margin: 0px 0px 16px;&quot;&gt;これらのテーブルを作成し、適切にリレーションシップを設定することで、要件に沿ったデータ構造を実現できます。&lt;/p&gt;&lt;p style=&quot;margin: 0px 0px 16px;&quot;&gt;実際のデータベース設計では、さらに詳細な属性やインデックス、制約などを検討する必要がありますが、この概要を基に設計を進めることができるでしょう。&lt;/p&gt;&lt;/blockquote&gt;&lt;p style=&quot;margin: 0px 0px 16px; color: rgb(43, 43, 43); font-family: &amp;quot;Segoe UI&amp;quot;, &amp;quot;Segoe UI Midlevel&amp;quot;, sans-serif; font-size: 17px; text-align: start; background-color: rgb(255, 255, 255);&quot; data-t=&quot;{&amp;quot;n&amp;quot;:&amp;quot;blueLinks&amp;quot;}&quot;&gt;　次は実際のアプリの画面構成について聞いてみます。&lt;/p&gt;&lt;p style=&quot;margin: 0px 0px 16px; color: rgb(43, 43, 43); font-family: &amp;quot;Segoe UI&amp;quot;, &amp;quot;Segoe UI Midlevel&amp;quot;, sans-serif; font-size: 17px; text-align: start; background-color: rgb(255, 255, 255);&quot; data-t=&quot;{&amp;quot;n&amp;quot;:&amp;quot;blueLinks&amp;quot;}&quot;&gt;　下のような回答が返ってきました。&lt;/p&gt;&lt;blockquote style=&quot;color: rgb(43, 43, 43); font-family: &amp;quot;Segoe UI&amp;quot;, &amp;quot;Segoe UI Midlevel&amp;quot;, sans-serif; font-size: 17px; text-align: start; background-color: rgb(255, 255, 255);&quot;&gt;&lt;p style=&quot;margin: 0px 0px 16px;&quot;&gt;このWebアプリの画面構成とルーティングを以下のように提案します。&lt;/p&gt;&lt;p style=&quot;margin: 0px 0px 16px;&quot;&gt;1. ホームページ（/）&lt;/p&gt;&lt;p style=&quot;margin: 0px 0px 16px;&quot;&gt;- アプリの概要や特徴を紹介&lt;/p&gt;&lt;p style=&quot;margin: 0px 0px 16px;&quot;&gt;- ログインボタンと新規登録ボタンを表示&lt;/p&gt;&lt;p style=&quot;margin: 0px 0px 16px;&quot;&gt;2. ユーザー登録ページ（/register）&lt;/p&gt;&lt;p style=&quot;margin: 0px 0px 16px;&quot;&gt;- ユーザー登録フォームを表示&lt;/p&gt;&lt;p style=&quot;margin: 0px 0px 16px;&quot;&gt;- メールアドレス、パスワード、ユーザー名の入力欄を用意&lt;/p&gt;&lt;p style=&quot;margin: 0px 0px 16px;&quot;&gt;3. ログインページ（/login）&lt;/p&gt;&lt;p style=&quot;margin: 0px 0px 16px;&quot;&gt;- ログインフォームを表示&lt;/p&gt;&lt;p style=&quot;margin: 0px 0px 16px;&quot;&gt;- メールアドレスとパスワードの入力欄を用意&lt;/p&gt;&lt;p style=&quot;margin: 0px 0px 16px;&quot;&gt;4. ダッシュボードページ（/dashboard）&lt;/p&gt;&lt;p style=&quot;margin: 0px 0px 16px;&quot;&gt;- ユーザーのホームページとして機能&lt;/p&gt;&lt;p style=&quot;margin: 0px 0px 16px;&quot;&gt;- 最近追加された本、お気に入りの本、読書状況の概要を表示&lt;/p&gt;&lt;p style=&quot;margin: 0px 0px 16px;&quot;&gt;- 本の検索フォームを用意&lt;/p&gt;&lt;p style=&quot;margin: 0px 0px 16px;&quot;&gt;5. 本の一覧ページ（/books）&lt;/p&gt;&lt;p style=&quot;margin: 0px 0px 16px;&quot;&gt;- 登録されている本の一覧を表示&lt;/p&gt;&lt;p style=&quot;margin: 0px 0px 16px;&quot;&gt;- 各本のタイトル、著者、ジャンル、評価を表示&lt;/p&gt;&lt;p style=&quot;margin: 0px 0px 16px;&quot;&gt;- クリックすると本の詳細ページに遷移&lt;/p&gt;&lt;p style=&quot;margin: 0px 0px 16px;&quot;&gt;- ページネーション機能を用意&lt;/p&gt;&lt;p style=&quot;margin: 0px 0px 16px;&quot;&gt;6. 本の詳細ページ（/books/{id}）&lt;/p&gt;&lt;p style=&quot;margin: 0px 0px 16px;&quot;&gt;- 個々の本の詳細情報を表示&lt;/p&gt;&lt;p style=&quot;margin: 0px 0px 16px;&quot;&gt;- タイトル、著者、ISBN、出版社、出版日、ジャンル、表紙画像を表示&lt;/p&gt;&lt;p style=&quot;margin: 0px 0px 16px;&quot;&gt;- ユーザーの評価、感想、読書状況、お気に入りフラグを表示&lt;/p&gt;&lt;p style=&quot;margin: 0px 0px 16px;&quot;&gt;- 本の編集ボタンと削除ボタンを用意&lt;/p&gt;&lt;p style=&quot;margin: 0px 0px 16px;&quot;&gt;7. 本の追加ページ（/books/add）&lt;/p&gt;&lt;p style=&quot;margin: 0px 0px 16px;&quot;&gt;- 新しい本を追加するためのフォームを表示&lt;/p&gt;&lt;p style=&quot;margin: 0px 0px 16px;&quot;&gt;- タイトル、著者、ISBN、出版社、出版日、ジャンル、表紙画像のURLの入力欄を用意&lt;/p&gt;&lt;p style=&quot;margin: 0px 0px 16px;&quot;&gt;8. 本の編集ページ（/books/{id}/edit）&lt;/p&gt;&lt;p style=&quot;margin: 0px 0px 16px;&quot;&gt;- 既存の本の情報を編集するためのフォームを表示&lt;/p&gt;&lt;p style=&quot;margin: 0px 0px 16px;&quot;&gt;- タイトル、著者、ISBN、出版社、出版日、ジャンル、表紙画像のURLの入力欄を用意&lt;/p&gt;&lt;p style=&quot;margin: 0px 0px 16px;&quot;&gt;- 更新ボタンを用意&lt;/p&gt;&lt;p style=&quot;margin: 0px 0px 16px;&quot;&gt;9. お気に入りページ（/favorites）&lt;/p&gt;&lt;p style=&quot;margin: 0px 0px 16px;&quot;&gt;- ユーザーがお気に入りに登録した本の一覧を表示&lt;/p&gt;&lt;p style=&quot;margin: 0px 0px 16px;&quot;&gt;- 各本のタイトル、著者、ジャンル、評価を表示&lt;/p&gt;&lt;p style=&quot;margin: 0px 0px 16px;&quot;&gt;- クリックすると本の詳細ページに遷移&lt;/p&gt;&lt;p style=&quot;margin: 0px 0px 16px;&quot;&gt;10. 読書状況ページ（/reading-status）&lt;/p&gt;&lt;p style=&quot;margin: 0px 0px 16px;&quot;&gt;- ユーザーの読書状況を表示&lt;/p&gt;&lt;p style=&quot;margin: 0px 0px 16px;&quot;&gt;- 未読、読書中、読了の本の一覧を表示&lt;/p&gt;&lt;p style=&quot;margin: 0px 0px 16px;&quot;&gt;- クリックすると本の詳細ページに遷移&lt;/p&gt;&lt;p style=&quot;margin: 0px 0px 16px;&quot;&gt;11. プロフィールページ（/profile）&lt;/p&gt;&lt;p style=&quot;margin: 0px 0px 16px;&quot;&gt;- ユーザーのプロフィール情報を表示&lt;/p&gt;&lt;p style=&quot;margin: 0px 0px 16px;&quot;&gt;- ユーザー名、メールアドレスの表示と編集機能を用意&lt;/p&gt;&lt;p style=&quot;margin: 0px 0px 16px;&quot;&gt;12. ログアウトページ（/logout）&lt;/p&gt;&lt;p style=&quot;margin: 0px 0px 16px;&quot;&gt;- ユーザーをログアウトさせる&lt;/p&gt;&lt;p style=&quot;margin: 0px 0px 16px;&quot;&gt;これらの画面構成とルーティングを基に、Webアプリを設計・実装していくことができます。必要に応じて、さらに詳細な画面や機能を追加したり、ルーティングを調整したりすることができます。&lt;/p&gt;&lt;/blockquote&gt;&lt;p style=&quot;margin: 0px 0px 16px; color: rgb(43, 43, 43); font-family: &amp;quot;Segoe UI&amp;quot;, &amp;quot;Segoe UI Midlevel&amp;quot;, sans-serif; font-size: 17px; text-align: start; background-color: rgb(255, 255, 255);&quot; data-t=&quot;{&amp;quot;n&amp;quot;:&amp;quot;blueLinks&amp;quot;}&quot;&gt;　GaiXerが提案してくれた構成でWebアプリを開発していきます。&lt;/p&gt;&lt;p style=&quot;margin: 0px 0px 16px; color: rgb(43, 43, 43); font-family: &amp;quot;Segoe UI&amp;quot;, &amp;quot;Segoe UI Midlevel&amp;quot;, sans-serif; font-size: 17px; text-align: start; background-color: rgb(255, 255, 255);&quot; data-t=&quot;{&amp;quot;n&amp;quot;:&amp;quot;blueLinks&amp;quot;}&quot;&gt;技術構成&lt;/p&gt;&lt;p style=&quot;margin: 0px 0px 16px; color: rgb(43, 43, 43); font-family: &amp;quot;Segoe UI&amp;quot;, &amp;quot;Segoe UI Midlevel&amp;quot;, sans-serif; font-size: 17px; text-align: start; background-color: rgb(255, 255, 255);&quot; data-t=&quot;{&amp;quot;n&amp;quot;:&amp;quot;blueLinks&amp;quot;}&quot;&gt;　今回はNext.jsとPostgreSQLを使います。（これもGaiXerにおすすめを聞きました。）&lt;/p&gt;&lt;p style=&quot;margin: 0px 0px 16px; color: rgb(43, 43, 43); font-family: &amp;quot;Segoe UI&amp;quot;, &amp;quot;Segoe UI Midlevel&amp;quot;, sans-serif; font-size: 17px; text-align: start; background-color: rgb(255, 255, 255);&quot; data-t=&quot;{&amp;quot;n&amp;quot;:&amp;quot;blueLinks&amp;quot;}&quot;&gt;ディレクトリ構成&lt;/p&gt;&lt;p style=&quot;margin: 0px 0px 16px; color: rgb(43, 43, 43); font-family: &amp;quot;Segoe UI&amp;quot;, &amp;quot;Segoe UI Midlevel&amp;quot;, sans-serif; font-size: 17px; text-align: start; background-color: rgb(255, 255, 255);&quot; data-t=&quot;{&amp;quot;n&amp;quot;:&amp;quot;blueLinks&amp;quot;}&quot;&gt;　ディレクトリ構成をGaiXerに聞いたところ、下のようにするとよいと提案されたのでこの通りに構成します。&lt;/p&gt;&lt;blockquote style=&quot;color: rgb(43, 43, 43); font-family: &amp;quot;Segoe UI&amp;quot;, &amp;quot;Segoe UI Midlevel&amp;quot;, sans-serif; font-size: 17px; text-align: start; background-color: rgb(255, 255, 255);&quot;&gt;&lt;p style=&quot;margin: 0px 0px 16px;&quot;&gt;your-app/&lt;/p&gt;&lt;p style=&quot;margin: 0px 0px 16px;&quot;&gt;├── components/&lt;/p&gt;&lt;p style=&quot;margin: 0px 0px 16px;&quot;&gt;│ └── ...&lt;/p&gt;&lt;p style=&quot;margin: 0px 0px 16px;&quot;&gt;├── pages/&lt;/p&gt;&lt;p style=&quot;margin: 0px 0px 16px;&quot;&gt;│ ├── api/&lt;/p&gt;&lt;p style=&quot;margin: 0px 0px 16px;&quot;&gt;│ │ └── ...&lt;/p&gt;&lt;p style=&quot;margin: 0px 0px 16px;&quot;&gt;│ ├── _app.js&lt;/p&gt;&lt;p style=&quot;margin: 0px 0px 16px;&quot;&gt;│ ├── _document.js&lt;/p&gt;&lt;p style=&quot;margin: 0px 0px 16px;&quot;&gt;│ ├── index.js&lt;/p&gt;&lt;p style=&quot;margin: 0px 0px 16px;&quot;&gt;│ └── ...&lt;/p&gt;&lt;p style=&quot;margin: 0px 0px 16px;&quot;&gt;├── public/&lt;/p&gt;&lt;p style=&quot;margin: 0px 0px 16px;&quot;&gt;│ └── ...&lt;/p&gt;&lt;p style=&quot;margin: 0px 0px 16px;&quot;&gt;├── styles/&lt;/p&gt;&lt;p style=&quot;margin: 0px 0px 16px;&quot;&gt;│ └── ...&lt;/p&gt;&lt;p style=&quot;margin: 0px 0px 16px;&quot;&gt;├── lib/&lt;/p&gt;&lt;p style=&quot;margin: 0px 0px 16px;&quot;&gt;│ └── db.js&lt;/p&gt;&lt;p style=&quot;margin: 0px 0px 16px;&quot;&gt;├── prisma/&lt;/p&gt;&lt;p style=&quot;margin: 0px 0px 16px;&quot;&gt;│ ├── schema.prisma&lt;/p&gt;&lt;p style=&quot;margin: 0px 0px 16px;&quot;&gt;│ └── ...&lt;/p&gt;&lt;p style=&quot;margin: 0px 0px 16px;&quot;&gt;├── .env&lt;/p&gt;&lt;p style=&quot;margin: 0px 0px 16px;&quot;&gt;├── .gitignore&lt;/p&gt;&lt;p style=&quot;margin: 0px 0px 16px;&quot;&gt;├── package.json&lt;/p&gt;&lt;p style=&quot;margin: 0px 0px 16px;&quot;&gt;└── README.md&lt;/p&gt;&lt;/blockquote&gt;&lt;p style=&quot;margin: 0px 0px 16px; color: rgb(43, 43, 43); font-family: &amp;quot;Segoe UI&amp;quot;, &amp;quot;Segoe UI Midlevel&amp;quot;, sans-serif; font-size: 17px; text-align: start; background-color: rgb(255, 255, 255);&quot; data-t=&quot;{&amp;quot;n&amp;quot;:&amp;quot;blueLinks&amp;quot;}&quot;&gt;　Next.jsとPostgreSQLの導入方法もGaiXerに従って導入します。&lt;/p&gt;&lt;p style=&quot;margin: 0px 0px 16px; color: rgb(43, 43, 43); font-family: &amp;quot;Segoe UI&amp;quot;, &amp;quot;Segoe UI Midlevel&amp;quot;, sans-serif; font-size: 17px; text-align: start; background-color: rgb(255, 255, 255);&quot; data-t=&quot;{&amp;quot;n&amp;quot;:&amp;quot;blueLinks&amp;quot;}&quot;&gt;　例によって導入のためのコマンドもGaiXerに生成してもらいます。&lt;/p&gt;&lt;blockquote style=&quot;color: rgb(43, 43, 43); font-family: &amp;quot;Segoe UI&amp;quot;, &amp;quot;Segoe UI Midlevel&amp;quot;, sans-serif; font-size: 17px; text-align: start; background-color: rgb(255, 255, 255);&quot;&gt;&lt;p style=&quot;margin: 0px 0px 16px;&quot;&gt;Next.jsとPostgreSQLの導入方法:&lt;/p&gt;&lt;p style=&quot;margin: 0px 0px 16px;&quot;&gt;Next.jsプロジェクトの作成&lt;/p&gt;&lt;img data-document-id=&quot;cms/api/amp/image/BB1otVag&quot; data-reference=&quot;image&quot;&gt;&lt;p style=&quot;margin: 0px 0px 16px;&quot;&gt;必要な依存関係のインストール&lt;/p&gt;&lt;img data-document-id=&quot;cms/api/amp/image/BB1otZo1&quot; data-reference=&quot;image&quot;&gt;&lt;p style=&quot;margin: 0px 0px 16px;&quot;&gt;Prismaの初期化&lt;/p&gt;&lt;img data-document-id=&quot;cms/api/amp/image/BB1otVam&quot; data-reference=&quot;image&quot;&gt;&lt;p style=&quot;margin: 0px 0px 16px;&quot;&gt;これにより、prismaディレクトリとschema.prismaファイルが作成されます。&lt;/p&gt;&lt;p style=&quot;margin: 0px 0px 16px;&quot;&gt;schema.prismaファイルにデータベーススキーマを定義&lt;/p&gt;&lt;img data-document-id=&quot;cms/api/amp/image/BB1otNJr&quot; data-reference=&quot;image&quot;&gt;&lt;p style=&quot;margin: 0px 0px 16px;&quot;&gt;.envファイルにデータベースの接続URLを設定&lt;/p&gt;&lt;img data-document-id=&quot;cms/api/amp/image/BB1otQhO&quot; data-reference=&quot;image&quot;&gt;&lt;p style=&quot;margin: 0px 0px 16px;&quot;&gt;データベースのマイグレーションを実行&lt;/p&gt;&lt;img data-document-id=&quot;cms/api/amp/image/BB1otNJx&quot; data-reference=&quot;image&quot;&gt;&lt;p style=&quot;margin: 0px 0px 16px;&quot;&gt;Prismaクライアントの生成&lt;/p&gt;&lt;img data-document-id=&quot;cms/api/amp/image/BB1otZo8&quot; data-reference=&quot;image&quot;&gt;&lt;p style=&quot;margin: 0px 0px 16px;&quot;&gt;lib/db.jsファイルにデータベース接続の設定を追加&lt;/p&gt;&lt;img data-document-id=&quot;cms/api/amp/image/BB1ou3Zv&quot; data-reference=&quot;image&quot;&gt;&lt;p style=&quot;margin: 0px 0px 16px;&quot;&gt;Next.jsのページやAPIルートでPrismaクライアントを使用してデータベースとやり取り&lt;/p&gt;&lt;img data-document-id=&quot;cms/api/amp/image/BB1otXst&quot; data-reference=&quot;image&quot;&gt;&lt;p style=&quot;margin: 0px 0px 16px;&quot;&gt;アプリケーションを起動&lt;/p&gt;&lt;img data-document-id=&quot;cms/api/amp/image/BB1otVaE&quot; data-reference=&quot;image&quot;&gt;&lt;/blockquote&gt;&lt;p style=&quot;margin: 0px 0px 16px; color: rgb(43, 43, 43); font-family: &amp;quot;Segoe UI&amp;quot;, &amp;quot;Segoe UI Midlevel&amp;quot;, sans-serif; font-size: 17px; text-align: start; background-color: rgb(255, 255, 255);&quot; data-t=&quot;{&amp;quot;n&amp;quot;:&amp;quot;blueLinks&amp;quot;}&quot;&gt;　これらのコマンドを打って開発の準備が完了しました！&lt;/p&gt;" style="whiteSpace=wrap;html=1;aspect=fixed;" vertex="1" parent="WIyWlLk6GJQsqaUBKTNV-1">
          <mxGeometry x="890" y="3410" width="1180" height="1180" as="geometry" />
        </mxCell>
        <mxCell id="WsgQUwjktYY94gRYczDW-1" value="出荷" style="text;html=1;align=center;verticalAlign=middle;resizable=0;points=[];autosize=1;strokeColor=none;fillColor=none;" vertex="1" parent="WIyWlLk6GJQsqaUBKTNV-1">
          <mxGeometry x="335" y="418" width="50" height="30" as="geometry" />
        </mxCell>
      </root>
    </mxGraphModel>
  </diagram>
</mxfile>
